<svg xmlns="http://www.w3.org/2000/svg" xmlns:xlink="http://www.w3.org/1999/xlink" id="processonSvg1000" viewBox="188.0 -18.0 1353.0 1806.5714285714284" width="1353.0" height="1806.5714285714284"><defs id="ProcessOnDefs1001"><marker id="ProcessOnMarker1122" markerUnits="userSpaceOnUse" orient="auto" markerWidth="16.23606797749979" markerHeight="10.550836550532098" viewBox="-1.0 -1.3763819204711736 16.23606797749979 10.550836550532098" refX="-1.0" refY="3.8990363547948754"><path id="ProcessOnPath1123" d="M12.0 3.8990363547948754L0.0 7.798072709589751V0.0Z" stroke="#323232" stroke-width="2.0" fill="#fff" transform="matrix(1.0,0.0,0.0,1.0,0.0,0.0)"/></marker><marker id="ProcessOnMarker1126" markerUnits="userSpaceOnUse" orient="auto" markerWidth="16.23606797749979" markerHeight="10.550836550532098" viewBox="-1.0 -1.3763819204711736 16.23606797749979 10.550836550532098" refX="-1.0" refY="3.8990363547948754"><path id="ProcessOnPath1127" d="M12.0 3.8990363547948754L0.0 7.798072709589751V0.0Z" stroke="#323232" stroke-width="2.0" fill="#fff" transform="matrix(1.0,0.0,0.0,1.0,0.0,0.0)"/></marker><marker id="ProcessOnMarker1130" markerUnits="userSpaceOnUse" orient="auto" markerWidth="20.609529741924973" markerHeight="10.888175666885001" viewBox="-2.3047648709624866 -1.5914908829822711 20.609529741924973 10.888175666885001" refX="0.0" refY="3.8525969504602293"><path id="ProcessOnPath1131" d="M0 3.8525969504602293L8.0 0L16.0 3.8525969504602293L8.0 7.705193900920459Z" stroke="#323232" stroke-width="2.0" fill="#fff"/></marker><marker id="ProcessOnMarker1138" markerUnits="userSpaceOnUse" orient="auto" markerWidth="20.609529741924973" markerHeight="10.888175666885001" viewBox="-2.3047648709624866 -1.5914908829822711 20.609529741924973 10.888175666885001" refX="0.0" refY="3.8525969504602293"><path id="ProcessOnPath1139" d="M0 3.8525969504602293L8.0 0L16.0 3.8525969504602293L8.0 7.705193900920459Z" stroke="#323232" stroke-width="2.0" fill="#fff"/></marker><marker id="ProcessOnMarker1142" markerUnits="userSpaceOnUse" orient="auto" markerWidth="20.609529741924973" markerHeight="10.888175666885001" viewBox="-2.3047648709624866 -1.5914908829822711 20.609529741924973 10.888175666885001" refX="0.0" refY="3.8525969504602293"><path id="ProcessOnPath1143" d="M0 3.8525969504602293L8.0 0L16.0 3.8525969504602293L8.0 7.705193900920459Z" stroke="#323232" stroke-width="2.0" fill="#fff"/></marker><marker id="ProcessOnMarker1146" markerUnits="userSpaceOnUse" orient="auto" markerWidth="14.289086868996552" markerHeight="19.055054660878554" viewBox="-0.5877852522924731 -0.8090169943749475 14.289086868996552 19.055054660878554" refX="12.0" refY="8.71851033606433"><path id="ProcessOnPath1147" d="M0 0L12.0 8.71851033606433L0 17.43702067212866" stroke="#323232" stroke-width="2.0" fill="none" transform="matrix(1.0,0.0,0.0,1.0,0.0,0.0)"/></marker><marker id="ProcessOnMarker1150" markerUnits="userSpaceOnUse" orient="auto" markerWidth="14.289086868996552" markerHeight="19.055054660878554" viewBox="-0.5877852522924731 -0.8090169943749475 14.289086868996552 19.055054660878554" refX="12.0" refY="8.71851033606433"><path id="ProcessOnPath1151" d="M0 0L12.0 8.71851033606433L0 17.43702067212866" stroke="#323232" stroke-width="2.0" fill="none" transform="matrix(1.0,0.0,0.0,1.0,0.0,0.0)"/></marker><marker id="ProcessOnMarker1154" markerUnits="userSpaceOnUse" orient="auto" markerWidth="20.609529741924973" markerHeight="10.888175666885001" viewBox="-2.3047648709624866 -1.5914908829822711 20.609529741924973 10.888175666885001" refX="0.0" refY="3.8525969504602293"><path id="ProcessOnPath1155" d="M0 3.8525969504602293L8.0 0L16.0 3.8525969504602293L8.0 7.705193900920459Z" stroke="#323232" stroke-width="2.0" fill="#323232"/></marker><marker id="ProcessOnMarker1158" markerUnits="userSpaceOnUse" orient="auto" markerWidth="20.609529741924973" markerHeight="10.888175666885001" viewBox="-2.3047648709624866 -1.5914908829822711 20.609529741924973 10.888175666885001" refX="0.0" refY="3.8525969504602293"><path id="ProcessOnPath1159" d="M0 3.8525969504602293L8.0 0L16.0 3.8525969504602293L8.0 7.705193900920459Z" stroke="#323232" stroke-width="2.0" fill="#323232"/></marker><marker id="ProcessOnMarker1212" markerUnits="userSpaceOnUse" orient="auto" markerWidth="16.23606797749979" markerHeight="10.550836550532098" viewBox="-1.0 -1.3763819204711736 16.23606797749979 10.550836550532098" refX="-1.0" refY="3.8990363547948754"><path id="ProcessOnPath1213" d="M12.0 3.8990363547948754L0.0 7.798072709589751V0.0Z" stroke="#323232" stroke-width="2.0" fill="#fff" transform="matrix(1.0,0.0,0.0,1.0,0.0,0.0)"/></marker><marker id="ProcessOnMarker1216" markerUnits="userSpaceOnUse" orient="auto" markerWidth="16.23606797749979" markerHeight="10.550836550532098" viewBox="-1.0 -1.3763819204711736 16.23606797749979 10.550836550532098" refX="-1.0" refY="3.8990363547948754"><path id="ProcessOnPath1217" d="M12.0 3.8990363547948754L0.0 7.798072709589751V0.0Z" stroke="#323232" stroke-width="2.0" fill="#fff" transform="matrix(1.0,0.0,0.0,1.0,0.0,0.0)"/></marker><marker id="ProcessOnMarker1236" markerUnits="userSpaceOnUse" orient="auto" markerWidth="14.289086868996552" markerHeight="19.055054660878554" viewBox="-0.5877852522924731 -0.8090169943749475 14.289086868996552 19.055054660878554" refX="12.0" refY="8.71851033606433"><path id="ProcessOnPath1237" d="M0 0L12.0 8.71851033606433L0 17.43702067212866" stroke="#323232" stroke-width="2.0" fill="none" transform="matrix(1.0,0.0,0.0,1.0,0.0,0.0)"/></marker><marker id="ProcessOnMarker1252" markerUnits="userSpaceOnUse" orient="auto" markerWidth="20.609529741924973" markerHeight="10.888175666885001" viewBox="-2.3047648709624866 -1.5914908829822711 20.609529741924973 10.888175666885001" refX="0.0" refY="3.8525969504602293"><path id="ProcessOnPath1253" d="M0 3.8525969504602293L8.0 0L16.0 3.8525969504602293L8.0 7.705193900920459Z" stroke="#323232" stroke-width="2.0" fill="#323232"/></marker></defs><g id="ProcessOnG1002"><path id="ProcessOnPath1003" d="M188.0 -18.0H1541.0V1788.5714285714284H188.0V-18.0Z" fill="none"/><g id="ProcessOnG1004"><g id="ProcessOnG1005" transform="matrix(1.0,0.0,0.0,1.0,208.0,2.0)" opacity="1.0"><path id="ProcessOnPath1006" d="M0.0 4.0Q0.0 0.0 4.0 0.0L1309.0 0.0Q1313.0 0.0 1313.0 4.0L1313.0 545.0Q1313.0 549.0 1309.0 549.0L4.0 549.0Q0.0 549.0 0.0 545.0Z" stroke="#323232" stroke-width="2.0" stroke-dasharray="none" opacity="1.0" fill="#ffffff"/></g><g id="ProcessOnG1007" transform="matrix(1.0,0.0,0.0,1.0,208.0,624.1269841269842)" opacity="1.0"><path id="ProcessOnPath1008" d="M0.0 4.0Q0.0 0.0 4.0 0.0L1309.0 0.0Q1313.0 0.0 1313.0 4.0L1313.0 1140.4444444444443Q1313.0 1144.4444444444443 1309.0 1144.4444444444443L4.0 1144.4444444444443Q0.0 1144.4444444444443 0.0 1140.4444444444443Z" stroke="#323232" stroke-width="2.0" stroke-dasharray="none" opacity="1.0" fill="#ffffff"/></g><g id="ProcessOnG1009" transform="matrix(1.0,0.0,0.0,1.0,811.71875,718.0)" opacity="1.0"><path id="ProcessOnPath1010" d="M0.0 4.0Q0.0 0.0 4.0 0.0L297.5625 0.0Q301.5625 0.0 301.5625 4.0L301.5625 218.0Q301.5625 222.0 297.5625 222.0L4.0 222.0Q0.0 222.0 0.0 218.0Z" stroke="#323232" stroke-width="2.0" stroke-dasharray="none" opacity="1.0" fill="#ffffff"/><path id="ProcessOnPath1011" d="M0.0 30.0L301.5625 30.0M0.0 126.0L301.5625 126.0" stroke="#323232" stroke-width="2.0" stroke-dasharray="none" opacity="1.0" fill="none"/><path id="ProcessOnPath1012" d="M0.0 0.0L301.5625 0.0L301.5625 222.0L0.0 222.0Z" stroke="none" stroke-width="0.0" stroke-dasharray="none" opacity="1.0" fill="none"/><g id="ProcessOnG1013" transform="matrix(1.0,0.0,0.0,1.0,10.0,6.25)"><text id="ProcessOnText1014" fill="#000000" font-size="14" x="0.0" y="14.350000000000001" font-family="微软雅黑" font-weight="bold" font-style="normal" text-decoration="none" family="微软雅黑" text-anchor="start" size="14">RiskGame</text></g><g id="ProcessOnG1015" transform="matrix(1.0,0.0,0.0,1.0,10.0,25.5)"><text id="ProcessOnText1016" fill="#000000" font-size="14" x="0.0" y="14.350000000000001" font-family="微软雅黑" font-weight="bold" font-style="normal" text-decoration="none" family="微软雅黑" text-anchor="start" size="14"></text><text id="ProcessOnText1017" fill="#000000" font-size="14" x="0.0" y="31.85" font-family="微软雅黑" font-weight="bold" font-style="normal" text-decoration="none" family="微软雅黑" text-anchor="start" size="14">- players: [Player]</text><text id="ProcessOnText1018" fill="#000000" font-size="14" x="0.0" y="49.35" font-family="微软雅黑" font-weight="bold" font-style="normal" text-decoration="none" family="微软雅黑" text-anchor="start" size="14">- currentPlayer: Player</text><text id="ProcessOnText1019" fill="#000000" font-size="14" x="0.0" y="66.85" font-family="微软雅黑" font-weight="bold" font-style="normal" text-decoration="none" family="微软雅黑" text-anchor="start" size="14">- gameMap: [Continent]</text><text id="ProcessOnText1020" fill="#000000" font-size="14" x="0.0" y="84.35" font-family="微软雅黑" font-weight="bold" font-style="normal" text-decoration="none" family="微软雅黑" text-anchor="start" size="14">- static GameSigleton: RiskGame</text><text id="ProcessOnText1021" fill="#000000" font-size="14" x="0.0" y="101.85" font-family="微软雅黑" font-weight="bold" font-style="normal" text-decoration="none" family="微软雅黑" text-anchor="start" size="14"></text></g><g id="ProcessOnG1022" transform="matrix(1.0,0.0,0.0,1.0,10.0,121.5)"><text id="ProcessOnText1023" fill="#000000" font-size="14" x="0.0" y="14.350000000000001" font-family="微软雅黑" font-weight="bold" font-style="normal" text-decoration="none" family="微软雅黑" text-anchor="start" size="14"></text><text id="ProcessOnText1024" fill="#000000" font-size="14" x="0.0" y="31.85" font-family="微软雅黑" font-weight="bold" font-style="normal" text-decoration="none" family="微软雅黑" text-anchor="start" size="14">+ startTurn()</text><text id="ProcessOnText1025" fill="#000000" font-size="14" x="0.0" y="49.35" font-family="微软雅黑" font-weight="bold" font-style="normal" text-decoration="none" family="微软雅黑" text-anchor="start" size="14">+ getCurrentPlayer(): Player</text><text id="ProcessOnText1026" fill="#000000" font-size="14" x="0.0" y="66.85" font-family="微软雅黑" font-weight="bold" font-style="normal" text-decoration="none" family="微软雅黑" text-anchor="start" size="14">- calculateRecruits(for: Player): Int</text><text id="ProcessOnText1027" fill="#000000" font-size="14" x="0.0" y="84.35" font-family="微软雅黑" font-weight="bold" font-style="normal" text-decoration="none" family="微软雅黑" text-anchor="start" size="14">- getRiskGameSigleton(): RiskGame</text><text id="ProcessOnText1028" fill="#000000" font-size="14" x="0.0" y="101.85" font-family="微软雅黑" font-weight="bold" font-style="normal" text-decoration="none" family="微软雅黑" text-anchor="start" size="14"></text></g></g><g id="ProcessOnG1029" transform="matrix(1.0,0.0,0.0,1.0,1250.013888888889,1071.0267857142826)" opacity="1.0"><path id="ProcessOnPath1030" d="M0.0 4.0Q0.0 0.0 4.0 0.0L226.0 0.0Q230.0 0.0 230.0 4.0L230.0 186.0Q230.0 190.0 226.0 190.0L4.0 190.0Q0.0 190.0 0.0 186.0Z" stroke="#323232" stroke-width="2.0" stroke-dasharray="none" opacity="1.0" fill="#ffffff"/><path id="ProcessOnPath1031" d="M0.0 30.0L230.0 30.0M0.0 110.0L230.0 110.0" stroke="#323232" stroke-width="2.0" stroke-dasharray="none" opacity="1.0" fill="none"/><path id="ProcessOnPath1032" d="M0.0 0.0L230.0 0.0L230.0 190.0L0.0 190.0Z" stroke="none" stroke-width="0.0" stroke-dasharray="none" opacity="1.0" fill="none"/><g id="ProcessOnG1033" transform="matrix(1.0,0.0,0.0,1.0,10.0,6.25)"><text id="ProcessOnText1034" fill="#000000" font-size="14" x="0.0" y="14.350000000000001" font-family="微软雅黑" font-weight="bold" font-style="normal" text-decoration="none" family="微软雅黑" text-anchor="start" size="14">Continent</text></g><g id="ProcessOnG1035" transform="matrix(1.0,0.0,0.0,1.0,10.0,26.25)"><text id="ProcessOnText1036" fill="#000000" font-size="14" x="0.0" y="14.350000000000001" font-family="微软雅黑" font-weight="bold" font-style="normal" text-decoration="none" family="微软雅黑" text-anchor="start" size="14"></text><text id="ProcessOnText1037" fill="#000000" font-size="14" x="0.0" y="31.85" font-family="微软雅黑" font-weight="bold" font-style="normal" text-decoration="none" family="微软雅黑" text-anchor="start" size="14">- name: String</text><text id="ProcessOnText1038" fill="#000000" font-size="14" x="0.0" y="49.35" font-family="微软雅黑" font-weight="bold" font-style="normal" text-decoration="none" family="微软雅黑" text-anchor="start" size="14">- manpowerBoon: Int</text><text id="ProcessOnText1039" fill="#000000" font-size="14" x="0.0" y="66.85" font-family="微软雅黑" font-weight="bold" font-style="normal" text-decoration="none" family="微软雅黑" text-anchor="start" size="14">- provinces: [Province]</text><text id="ProcessOnText1040" fill="#000000" font-size="14" x="0.0" y="84.35" font-family="微软雅黑" font-weight="bold" font-style="normal" text-decoration="none" family="微软雅黑" text-anchor="start" size="14"></text></g><g id="ProcessOnG1041" transform="matrix(1.0,0.0,0.0,1.0,10.0,106.25)"><text id="ProcessOnText1042" fill="#000000" font-size="14" x="0.0" y="14.350000000000001" font-family="微软雅黑" font-weight="bold" font-style="normal" text-decoration="none" family="微软雅黑" text-anchor="start" size="14"></text><text id="ProcessOnText1043" fill="#000000" font-size="14" x="0.0" y="31.85" font-family="微软雅黑" font-weight="bold" font-style="normal" text-decoration="none" family="微软雅黑" text-anchor="start" size="14">+ getBoon(): Int</text><text id="ProcessOnText1044" fill="#000000" font-size="14" x="0.0" y="49.35" font-family="微软雅黑" font-weight="bold" font-style="normal" text-decoration="none" family="微软雅黑" text-anchor="start" size="14">+ getName(): String</text><text id="ProcessOnText1045" fill="#000000" font-size="14" x="0.0" y="66.85" font-family="微软雅黑" font-weight="bold" font-style="normal" text-decoration="none" family="微软雅黑" text-anchor="start" size="14">+ isBelong(to: Player): Boolean</text><text id="ProcessOnText1046" fill="#000000" font-size="14" x="0.0" y="84.35" font-family="微软雅黑" font-weight="bold" font-style="normal" text-decoration="none" family="微软雅黑" text-anchor="start" size="14"></text></g></g><g id="ProcessOnG1047" transform="matrix(1.0,0.0,0.0,1.0,808.0,1063.1386831309296)" opacity="1.0"><path id="ProcessOnPath1048" d="M0.0 4.0Q0.0 0.0 4.0 0.0L371.0 0.0Q375.0 0.0 375.0 4.0L375.0 202.0Q375.0 206.0 371.0 206.0L4.0 206.0Q0.0 206.0 0.0 202.0Z" stroke="#323232" stroke-width="2.0" stroke-dasharray="none" opacity="1.0" fill="#ffffff"/><path id="ProcessOnPath1049" d="M0.0 30.0L375.0 30.0M0.0 126.0L375.0 126.0" stroke="#323232" stroke-width="2.0" stroke-dasharray="none" opacity="1.0" fill="none"/><path id="ProcessOnPath1050" d="M0.0 0.0L375.0 0.0L375.0 206.0L0.0 206.0Z" stroke="none" stroke-width="0.0" stroke-dasharray="none" opacity="1.0" fill="none"/><g id="ProcessOnG1051" transform="matrix(1.0,0.0,0.0,1.0,10.0,6.25)"><text id="ProcessOnText1052" fill="#000000" font-size="14" x="0.0" y="14.350000000000001" font-family="微软雅黑" font-weight="bold" font-style="normal" text-decoration="none" family="微软雅黑" text-anchor="start" size="14">Province</text></g><g id="ProcessOnG1053" transform="matrix(1.0,0.0,0.0,1.0,10.0,25.5)"><text id="ProcessOnText1054" fill="#000000" font-size="14" x="0.0" y="14.350000000000001" font-family="微软雅黑" font-weight="bold" font-style="normal" text-decoration="none" family="微软雅黑" text-anchor="start" size="14"></text><text id="ProcessOnText1055" fill="#000000" font-size="14" x="0.0" y="31.85" font-family="微软雅黑" font-weight="bold" font-style="normal" text-decoration="none" family="微软雅黑" text-anchor="start" size="14">- name: String</text><text id="ProcessOnText1056" fill="#000000" font-size="14" x="0.0" y="49.35" font-family="微软雅黑" font-weight="bold" font-style="normal" text-decoration="none" family="微软雅黑" text-anchor="start" size="14">- manpower: Int</text><text id="ProcessOnText1057" fill="#000000" font-size="14" x="0.0" y="66.85" font-family="微软雅黑" font-weight="bold" font-style="normal" text-decoration="none" family="微软雅黑" text-anchor="start" size="14">- armiesNumber: Int</text><text id="ProcessOnText1058" fill="#000000" font-size="14" x="0.0" y="84.35" font-family="微软雅黑" font-weight="bold" font-style="normal" text-decoration="none" family="微软雅黑" text-anchor="start" size="14">- neighbour: [Province]</text><text id="ProcessOnText1059" fill="#000000" font-size="14" x="0.0" y="101.85" font-family="微软雅黑" font-weight="bold" font-style="normal" text-decoration="none" family="微软雅黑" text-anchor="start" size="14"></text></g><g id="ProcessOnG1060" transform="matrix(1.0,0.0,0.0,1.0,10.0,122.25)"><text id="ProcessOnText1061" fill="#000000" font-size="14" x="0.0" y="14.350000000000001" font-family="微软雅黑" font-weight="bold" font-style="normal" text-decoration="none" family="微软雅黑" text-anchor="start" size="14"></text><text id="ProcessOnText1062" fill="#000000" font-size="14" x="0.0" y="31.85" font-family="微软雅黑" font-weight="bold" font-style="normal" text-decoration="none" family="微软雅黑" text-anchor="start" size="14">+ getManpower(): Int</text><text id="ProcessOnText1063" fill="#000000" font-size="14" x="0.0" y="49.35" font-family="微软雅黑" font-weight="bold" font-style="normal" text-decoration="none" family="微软雅黑" text-anchor="start" size="14">+ getNeighbour: [Province]</text><text id="ProcessOnText1064" fill="#000000" font-size="14" x="0.0" y="66.85" font-family="微软雅黑" font-weight="bold" font-style="normal" text-decoration="none" family="微软雅黑" text-anchor="start" size="14">+ battle(from: Province, armiesNum: Int): Boolean</text><text id="ProcessOnText1065" fill="#000000" font-size="14" x="0.0" y="84.35" font-family="微软雅黑" font-weight="bold" font-style="normal" text-decoration="none" family="微软雅黑" text-anchor="start" size="14"></text></g></g><g id="ProcessOnG1066" transform="matrix(1.0,0.0,0.0,1.0,1082.5555555555543,120.5)" opacity="1.0"><path id="ProcessOnPath1067" d="M0.0 4.0Q0.0 0.0 4.0 0.0L368.0 0.0Q372.0 0.0 372.0 4.0L372.0 170.0Q372.0 174.0 368.0 174.0L4.0 174.0Q0.0 174.0 0.0 170.0Z" stroke="#323232" stroke-width="2.0" stroke-dasharray="none" opacity="1.0" fill="#ffffff"/><path id="ProcessOnPath1068" d="M0.0 30.0L372.0 30.0M0.0 94.0L372.0 94.0" stroke="#323232" stroke-width="2.0" stroke-dasharray="none" opacity="1.0" fill="none"/><path id="ProcessOnPath1069" d="M0.0 0.0L372.0 0.0L372.0 174.0L0.0 174.0Z" stroke="none" stroke-width="0.0" stroke-dasharray="none" opacity="1.0" fill="none"/><g id="ProcessOnG1070" transform="matrix(1.0,0.0,0.0,1.0,10.0,6.25)"><text id="ProcessOnText1071" fill="#000000" font-size="14" x="0.0" y="14.350000000000001" font-family="微软雅黑" font-weight="bold" font-style="normal" text-decoration="none" family="微软雅黑" text-anchor="start" size="14">ControllerNotificationCentre</text></g><g id="ProcessOnG1072" transform="matrix(1.0,0.0,0.0,1.0,10.0,18.25)"><text id="ProcessOnText1073" fill="#000000" font-size="14" x="0.0" y="14.350000000000001" font-family="微软雅黑" font-weight="bold" font-style="normal" text-decoration="none" family="微软雅黑" text-anchor="start" size="14"></text><text id="ProcessOnText1074" fill="#000000" font-size="14" x="0.0" y="31.85" font-family="微软雅黑" font-weight="bold" font-style="normal" text-decoration="none" family="微软雅黑" text-anchor="start" size="14">- unityScripts: UnityScript</text><text id="ProcessOnText1075" fill="#000000" font-size="14" x="0.0" y="49.35" font-family="微软雅黑" font-weight="bold" font-style="normal" text-decoration="none" family="微软雅黑" text-anchor="start" size="14">- static CentreSingleton: </text><text id="ProcessOnText1076" fill="#000000" font-size="14" x="0.0" y="66.85" font-family="微软雅黑" font-weight="bold" font-style="normal" text-decoration="none" family="微软雅黑" text-anchor="start" size="14">ControllerNotificationCentre</text><text id="ProcessOnText1077" fill="#000000" font-size="14" x="0.0" y="84.35" font-family="微软雅黑" font-weight="bold" font-style="normal" text-decoration="none" family="微软雅黑" text-anchor="start" size="14"></text></g><g id="ProcessOnG1078" transform="matrix(1.0,0.0,0.0,1.0,10.0,81.5)"><text id="ProcessOnText1079" fill="#000000" font-size="14" x="0.0" y="14.350000000000001" font-family="微软雅黑" font-weight="bold" font-style="normal" text-decoration="none" family="微软雅黑" text-anchor="start" size="14"></text><text id="ProcessOnText1080" fill="#000000" font-size="14" x="0.0" y="31.85" font-family="微软雅黑" font-weight="bold" font-style="normal" text-decoration="none" family="微软雅黑" text-anchor="start" size="14">+ registerNotification()</text><text id="ProcessOnText1081" fill="#000000" font-size="14" x="0.0" y="49.35" font-family="微软雅黑" font-weight="bold" font-style="normal" text-decoration="none" family="微软雅黑" text-anchor="start" size="14">+ distributeNotification()</text><text id="ProcessOnText1082" fill="#000000" font-size="14" x="0.0" y="66.85" font-family="微软雅黑" font-weight="bold" font-style="normal" text-decoration="none" family="微软雅黑" text-anchor="start" size="14">+ getCentreSingleton(): </text><text id="ProcessOnText1083" fill="#000000" font-size="14" x="0.0" y="84.35" font-family="微软雅黑" font-weight="bold" font-style="normal" text-decoration="none" family="微软雅黑" text-anchor="start" size="14">ControllerNotificationCentre</text><text id="ProcessOnText1084" fill="#000000" font-size="14" x="0.0" y="101.85" font-family="微软雅黑" font-weight="bold" font-style="normal" text-decoration="none" family="微软雅黑" text-anchor="start" size="14"></text></g></g><g id="ProcessOnG1085" transform="matrix(1.0,0.0,0.0,1.0,604.0,177.5)" opacity="1.0"><path id="ProcessOnPath1086" d="M0.0 4.0Q0.0 0.0 4.0 0.0L166.5 0.0Q170.5 0.0 170.5 4.0L170.5 56.0Q170.5 60.0 166.5 60.0L4.0 60.0Q0.0 60.0 0.0 56.0Z" stroke="#323232" stroke-width="2.0" stroke-dasharray="none" opacity="1.0" fill="#ffffff"/><path id="ProcessOnPath1087" d="M0.0 30.0L170.5 30.0" stroke="#323232" stroke-width="2.0" stroke-dasharray="none" opacity="1.0" fill="none"/><path id="ProcessOnPath1088" d="M0.0 0.0L170.5 0.0L170.5 60.0L0.0 60.0Z" stroke="none" stroke-width="0.0" stroke-dasharray="none" opacity="1.0" fill="none"/><g id="ProcessOnG1089" transform="matrix(1.0,0.0,0.0,1.0,10.0,6.25)"><text id="ProcessOnText1090" fill="#000000" font-size="14" x="0.0" y="14.350000000000001" font-family="微软雅黑" font-weight="bold" font-style="normal" text-decoration="none" family="微软雅黑" text-anchor="start" size="14">UnityScript</text></g><g id="ProcessOnG1091" transform="matrix(1.0,0.0,0.0,1.0,10.0,36.25)"><text id="ProcessOnText1092" fill="#000000" font-size="14" x="0.0" y="14.350000000000001" font-family="微软雅黑" font-weight="bold" font-style="normal" text-decoration="none" family="微软雅黑" text-anchor="start" size="14"></text></g></g><g id="ProcessOnG1093" transform="matrix(1.0,0.0,0.0,1.0,230.0,289.86419753086466)" opacity="1.0"><path id="ProcessOnPath1094" d="M0.0 4.0Q0.0 0.0 4.0 0.0L226.0 0.0Q230.0 0.0 230.0 4.0L230.0 106.0Q230.0 110.0 226.0 110.0L4.0 110.0Q0.0 110.0 0.0 106.0Z" stroke="#323232" stroke-width="2.0" stroke-dasharray="none" opacity="1.0" fill="#ffffff"/><path id="ProcessOnPath1095" d="M0.0 30.0L230.0 30.0" stroke="#323232" stroke-width="2.0" stroke-dasharray="none" opacity="1.0" fill="none"/><path id="ProcessOnPath1096" d="M0.0 0.0L230.0 0.0L230.0 110.0L0.0 110.0Z" stroke="none" stroke-width="0.0" stroke-dasharray="none" opacity="1.0" fill="none"/><g id="ProcessOnG1097" transform="matrix(1.0,0.0,0.0,1.0,10.0,6.25)"><text id="ProcessOnText1098" fill="#000000" font-size="14" x="0.0" y="14.350000000000001" font-family="微软雅黑" font-weight="bold" font-style="normal" text-decoration="none" family="微软雅黑" text-anchor="start" size="14">ProvinceController</text></g><g id="ProcessOnG1099" transform="matrix(1.0,0.0,0.0,1.0,10.0,26.25)"><text id="ProcessOnText1100" fill="#000000" font-size="14" x="0.0" y="14.350000000000001" font-family="微软雅黑" font-weight="bold" font-style="normal" text-decoration="none" family="微软雅黑" text-anchor="start" size="14"></text><text id="ProcessOnText1101" fill="#000000" font-size="14" x="0.0" y="31.85" font-family="微软雅黑" font-weight="bold" font-style="normal" text-decoration="none" family="微软雅黑" text-anchor="start" size="14">- onClick()</text><text id="ProcessOnText1102" fill="#000000" font-size="14" x="0.0" y="49.35" font-family="微软雅黑" font-weight="bold" font-style="normal" text-decoration="none" family="微软雅黑" text-anchor="start" size="14">- generateArmy()</text><text id="ProcessOnText1103" fill="#000000" font-size="14" x="0.0" y="66.85" font-family="微软雅黑" font-weight="bold" font-style="normal" text-decoration="none" family="微软雅黑" text-anchor="start" size="14">- updateAreaView()</text><text id="ProcessOnText1104" fill="#000000" font-size="14" x="0.0" y="84.35" font-family="微软雅黑" font-weight="bold" font-style="normal" text-decoration="none" family="微软雅黑" text-anchor="start" size="14"></text></g></g><g id="ProcessOnG1105" transform="matrix(1.0,0.0,0.0,1.0,283.125,674.0)" opacity="1.0"><path id="ProcessOnPath1106" d="M0.0 0.0L160.0 0.0L160.0 40.0L0.0 40.0Z" stroke="none" stroke-width="0.0" stroke-dasharray="none" opacity="1.0" fill="none"/><g id="ProcessOnG1107" transform="matrix(1.0,0.0,0.0,1.0,0.0,-6.875)"><text id="ProcessOnText1108" fill="#000000" font-size="43" x="0.0" y="44.075" font-family="微软雅黑" font-weight="bold" font-style="normal" text-decoration="none" family="微软雅黑" text-anchor="start" size="43">Model</text></g></g><g id="ProcessOnG1109" transform="matrix(1.0,0.0,0.0,1.0,230.0,44.0)" opacity="1.0"><path id="ProcessOnPath1110" d="M0.0 4.0Q0.0 0.0 4.0 0.0L226.0 0.0Q230.0 0.0 230.0 4.0L230.0 90.0Q230.0 94.0 226.0 94.0L4.0 94.0Q0.0 94.0 0.0 90.0Z" stroke="#323232" stroke-width="2.0" stroke-dasharray="none" opacity="1.0" fill="#ffffff"/><path id="ProcessOnPath1111" d="M0.0 30.0L230.0 30.0" stroke="#323232" stroke-width="2.0" stroke-dasharray="none" opacity="1.0" fill="none"/><path id="ProcessOnPath1112" d="M0.0 0.0L230.0 0.0L230.0 94.0L0.0 94.0Z" stroke="none" stroke-width="0.0" stroke-dasharray="none" opacity="1.0" fill="none"/><g id="ProcessOnG1113" transform="matrix(1.0,0.0,0.0,1.0,10.0,6.25)"><text id="ProcessOnText1114" fill="#000000" font-size="14" x="0.0" y="14.350000000000001" font-family="微软雅黑" font-weight="bold" font-style="normal" text-decoration="none" family="微软雅黑" text-anchor="start" size="14">ArmyController</text></g><g id="ProcessOnG1115" transform="matrix(1.0,0.0,0.0,1.0,10.0,27.0)"><text id="ProcessOnText1116" fill="#000000" font-size="14" x="0.0" y="14.350000000000001" font-family="微软雅黑" font-weight="bold" font-style="normal" text-decoration="none" family="微软雅黑" text-anchor="start" size="14"></text><text id="ProcessOnText1117" fill="#000000" font-size="14" x="0.0" y="31.85" font-family="微软雅黑" font-weight="bold" font-style="normal" text-decoration="none" family="微软雅黑" text-anchor="start" size="14">- onClick()</text><text id="ProcessOnText1118" fill="#000000" font-size="14" x="0.0" y="49.35" font-family="微软雅黑" font-weight="bold" font-style="normal" text-decoration="none" family="微软雅黑" text-anchor="start" size="14">- dragToProvince()</text><text id="ProcessOnText1119" fill="#000000" font-size="14" x="0.0" y="66.85" font-family="微软雅黑" font-weight="bold" font-style="normal" text-decoration="none" family="微软雅黑" text-anchor="start" size="14"></text></g></g><g id="ProcessOnG1120"><path id="ProcessOnPath1121" d="M460.0 91.0L592.1549714807403 197.91704289934893" stroke="#323232" stroke-width="2.0" stroke-dasharray="none" fill="none" marker-end="url(#ProcessOnMarker1122)"/></g><g id="ProcessOnG1124"><path id="ProcessOnPath1125" d="M460.0 344.86419753086466L592.9754516009249 218.0165155831884" stroke="#323232" stroke-width="2.0" stroke-dasharray="none" fill="none" marker-end="url(#ProcessOnMarker1126)"/></g><g id="ProcessOnG1128"><path id="ProcessOnPath1129" d="M774.5 207.5L928.5277777777771 207.5L928.5277777777771 207.50000000000037L1064.2507906845917 207.50000000000037" stroke="#323232" stroke-width="2.0" stroke-dasharray="none" fill="none" marker-end="url(#ProcessOnMarker1130)"/></g><g id="ProcessOnG1132" transform="matrix(1.0,0.0,0.0,1.0,248.125,465.0)" opacity="1.0"><path id="ProcessOnPath1133" d="M0.0 0.0L230.0 0.0L230.0 47.0L0.0 47.0Z" stroke="none" stroke-width="0.0" stroke-dasharray="none" opacity="1.0" fill="none"/><g id="ProcessOnG1134" transform="matrix(1.0,0.0,0.0,1.0,0.0,-3.375)"><text id="ProcessOnText1135" fill="#000000" font-size="43" x="0.0" y="44.075" font-family="微软雅黑" font-weight="bold" font-style="normal" text-decoration="none" family="微软雅黑" text-anchor="start" size="43">Controller</text></g></g><g id="ProcessOnG1136"><path id="ProcessOnPath1137" d="M1183.0 1166.1386831309283L1216.5069444444443 1166.1386831309283L1216.5069444444443 1166.026785714282L1231.7091240179263 1166.026785714282" stroke="#323232" stroke-width="2.0" stroke-dasharray="none" fill="none" marker-end="url(#ProcessOnMarker1138)"/></g><g id="ProcessOnG1140"><path id="ProcessOnPath1141" d="M808.0 1166.1386831309285L763.9999999999998 1166.1386831309285L763.9999999999998 1165.6656967056692L738.304764870962 1165.6656967056692" stroke="#323232" stroke-width="2.0" stroke-dasharray="none" fill="none" marker-end="url(#ProcessOnMarker1142)"/></g><g id="ProcessOnG1144"><path id="ProcessOnPath1145" d="M689.25 237.5L962.5 718.0" stroke="#323232" stroke-width="2.0" stroke-dasharray="none" fill="none" marker-end="url(#ProcessOnMarker1146)"/></g><g id="ProcessOnG1148"><path id="ProcessOnPath1149" d="M962.5 718.0L1268.5555555555527 294.5000000000009" stroke="#323232" stroke-width="2.0" stroke-dasharray="10.0 4.0" fill="none" marker-end="url(#ProcessOnMarker1150)"/></g><g id="ProcessOnG1152"><path id="ProcessOnPath1153" d="M541.9444444444437 1018.423378582468L944.5054258328531 943.355550256556" stroke="#323232" stroke-width="2.0" stroke-dasharray="none" fill="none" marker-end="url(#ProcessOnMarker1154)"/></g><g id="ProcessOnG1156"><path id="ProcessOnPath1157" d="M1365.013888888889 1071.0267857142826L979.9057866166988 945.6659517501625" stroke="#323232" stroke-width="2.0" stroke-dasharray="none" fill="none" marker-end="url(#ProcessOnMarker1158)"/></g><g id="ProcessOnG1160" transform="matrix(1.0,0.0,0.0,1.0,271.6145282186953,1408.5446195406714)" opacity="1.0"><path id="ProcessOnPath1161" d="M0.0 4.0Q0.0 0.0 4.0 0.0L226.42361111111126 0.0Q230.42361111111126 0.0 230.42361111111126 4.0L230.42361111111126 134.0Q230.42361111111126 138.0 226.42361111111126 138.0L4.0 138.0Q0.0 138.0 0.0 134.0Z" stroke="#323232" stroke-width="2.0" stroke-dasharray="none" opacity="1.0" fill="#ffffff"/><path id="ProcessOnPath1162" d="M0.0 30.0L230.42361111111126 30.0M0.0 84.0L230.42361111111126 84.0" stroke="#323232" stroke-width="2.0" stroke-dasharray="none" opacity="1.0" fill="none"/><path id="ProcessOnPath1163" d="M0.0 0.0L230.42361111111126 0.0L230.42361111111126 138.0L0.0 138.0Z" stroke="none" stroke-width="0.0" stroke-dasharray="none" opacity="1.0" fill="none"/><g id="ProcessOnG1164" transform="matrix(1.0,0.0,0.0,1.0,10.0,6.25)"><text id="ProcessOnText1165" fill="#000000" font-size="14" x="0.0" y="14.350000000000001" font-family="微软雅黑" font-weight="bold" font-style="normal" text-decoration="none" family="微软雅黑" text-anchor="start" size="14">HumanPlayer</text></g><g id="ProcessOnG1166" transform="matrix(1.0,0.0,0.0,1.0,10.0,30.75)"><text id="ProcessOnText1167" fill="#000000" font-size="14" x="0.0" y="14.350000000000001" font-family="微软雅黑" font-weight="bold" font-style="normal" text-decoration="none" family="微软雅黑" text-anchor="start" size="14"></text><text id="ProcessOnText1168" fill="#000000" font-size="14" x="0.0" y="31.85" font-family="微软雅黑" font-weight="bold" font-style="normal" text-decoration="none" family="微软雅黑" text-anchor="start" size="14">- playerName: String</text><text id="ProcessOnText1169" fill="#000000" font-size="14" x="0.0" y="49.35" font-family="微软雅黑" font-weight="bold" font-style="normal" text-decoration="none" family="微软雅黑" text-anchor="start" size="14"></text></g><g id="ProcessOnG1170" transform="matrix(1.0,0.0,0.0,1.0,10.0,84.75)"><text id="ProcessOnText1171" fill="#000000" font-size="14" x="0.0" y="14.350000000000001" font-family="微软雅黑" font-weight="bold" font-style="normal" text-decoration="none" family="微软雅黑" text-anchor="start" size="14"></text><text id="ProcessOnText1172" fill="#000000" font-size="14" x="0.0" y="31.85" font-family="微软雅黑" font-weight="bold" font-style="normal" text-decoration="none" family="微软雅黑" text-anchor="start" size="14">+ getPlayerName()</text><text id="ProcessOnText1173" fill="#000000" font-size="14" x="0.0" y="49.35" font-family="微软雅黑" font-weight="bold" font-style="normal" text-decoration="none" family="微软雅黑" text-anchor="start" size="14"></text></g></g><g id="ProcessOnG1174" transform="matrix(1.0,0.0,0.0,1.0,600.7755114749775,1394.5084872508014)" opacity="1.0"><path id="ProcessOnPath1175" d="M0.0 4.0Q0.0 0.0 4.0 0.0L377.1332018747137 0.0Q381.1332018747137 0.0 381.1332018747137 4.0L381.1332018747137 157.51103496942164Q381.1332018747137 161.51103496942164 377.1332018747137 161.51103496942164L4.0 161.51103496942164Q0.0 161.51103496942164 0.0 157.51103496942164Z" stroke="#323232" stroke-width="2.0" stroke-dasharray="none" opacity="1.0" fill="#ffffff"/><path id="ProcessOnPath1176" d="M0.0 30.0L381.1332018747137 30.0M0.0 104.0L381.1332018747137 104.0" stroke="#323232" stroke-width="2.0" stroke-dasharray="none" opacity="1.0" fill="none"/><path id="ProcessOnPath1177" d="M0.0 0.0L381.1332018747137 0.0L381.1332018747137 161.51103496942164L0.0 161.51103496942164Z" stroke="none" stroke-width="0.0" stroke-dasharray="none" opacity="1.0" fill="none"/><g id="ProcessOnG1178" transform="matrix(1.0,0.0,0.0,1.0,10.0,6.25)"><text id="ProcessOnText1179" fill="#000000" font-size="14" x="0.0" y="14.350000000000001" font-family="微软雅黑" font-weight="bold" font-style="normal" text-decoration="none" family="微软雅黑" text-anchor="start" size="14">&lt;&lt;Abstract&gt;&gt; ComputerPlayer</text></g><g id="ProcessOnG1180" transform="matrix(1.0,0.0,0.0,1.0,10.0,31.0)"><text id="ProcessOnText1181" fill="#000000" font-size="14" x="0.0" y="14.350000000000001" font-family="微软雅黑" font-weight="bold" font-style="normal" text-decoration="none" family="微软雅黑" text-anchor="start" size="14"></text><text id="ProcessOnText1182" fill="#000000" font-size="14" x="0.0" y="31.85" font-family="微软雅黑" font-weight="bold" font-style="normal" text-decoration="none" family="微软雅黑" text-anchor="start" size="14">- type: AILevel</text><text id="ProcessOnText1183" fill="#000000" font-size="14" x="0.0" y="49.35" font-family="微软雅黑" font-weight="bold" font-style="normal" text-decoration="none" family="微软雅黑" text-anchor="start" size="14">- preferenceFunction: HashMap&lt;String, Integer&gt;</text><text id="ProcessOnText1184" fill="#000000" font-size="14" x="0.0" y="66.85" font-family="微软雅黑" font-weight="bold" font-style="normal" text-decoration="none" family="微软雅黑" text-anchor="start" size="14"></text></g><g id="ProcessOnG1185" transform="matrix(1.0,0.0,0.0,1.0,10.0,107.50551748471082)"><text id="ProcessOnText1186" fill="#000000" font-size="14" x="0.0" y="14.350000000000001" font-family="微软雅黑" font-weight="bold" font-style="normal" text-decoration="none" family="微软雅黑" text-anchor="start" size="14"></text><text id="ProcessOnText1187" fill="#000000" font-size="14" x="0.0" y="31.85" font-family="微软雅黑" font-weight="bold" font-style="normal" text-decoration="none" family="微软雅黑" text-anchor="start" size="14">+ exeAlgorithm(): void</text><text id="ProcessOnText1188" fill="#000000" font-size="14" x="0.0" y="49.35" font-family="微软雅黑" font-weight="bold" font-style="normal" text-decoration="none" family="微软雅黑" text-anchor="start" size="14"></text></g></g><g id="ProcessOnG1189" transform="matrix(1.0,0.0,0.0,1.0,363.88888888888783,1018.423378582468)" opacity="1.0"><path id="ProcessOnPath1190" d="M0.0 4.0Q0.0 0.0 4.0 0.0L352.11111111111165 0.0Q356.11111111111165 0.0 356.11111111111165 4.0L356.11111111111165 290.48463624641033Q356.11111111111165 294.48463624641033 352.11111111111165 294.48463624641033L4.0 294.48463624641033Q0.0 294.48463624641033 0.0 290.48463624641033Z" stroke="#323232" stroke-width="2.0" stroke-dasharray="none" opacity="1.0" fill="#ffffff"/><path id="ProcessOnPath1191" d="M0.0 30.0L356.11111111111165 30.0M0.0 134.0L356.11111111111165 134.0" stroke="#323232" stroke-width="2.0" stroke-dasharray="none" opacity="1.0" fill="none"/><path id="ProcessOnPath1192" d="M0.0 0.0L356.11111111111165 0.0L356.11111111111165 294.48463624641033L0.0 294.48463624641033Z" stroke="none" stroke-width="0.0" stroke-dasharray="none" opacity="1.0" fill="none"/><g id="ProcessOnG1193" transform="matrix(1.0,0.0,0.0,1.0,10.0,6.25)"><text id="ProcessOnText1194" fill="#000000" font-size="14" x="0.0" y="14.350000000000001" font-family="微软雅黑" font-weight="bold" font-style="normal" text-decoration="none" family="微软雅黑" text-anchor="start" size="14">&lt;&lt;Abstract&gt;&gt; Player </text></g><g id="ProcessOnG1195" transform="matrix(1.0,0.0,0.0,1.0,10.0,38.25)"><text id="ProcessOnText1196" fill="#000000" font-size="14" x="0.0" y="14.350000000000001" font-family="微软雅黑" font-weight="bold" font-style="normal" text-decoration="none" family="微软雅黑" text-anchor="start" size="14"></text><text id="ProcessOnText1197" fill="#000000" font-size="14" x="0.0" y="31.85" font-family="微软雅黑" font-weight="bold" font-style="normal" text-decoration="none" family="微软雅黑" text-anchor="start" size="14">- provinces: [Province]</text><text id="ProcessOnText1198" fill="#000000" font-size="14" x="0.0" y="49.35" font-family="微软雅黑" font-weight="bold" font-style="normal" text-decoration="none" family="微软雅黑" text-anchor="start" size="14">- recruitsNumber: Int</text><text id="ProcessOnText1199" fill="#000000" font-size="14" x="0.0" y="66.85" font-family="微软雅黑" font-weight="bold" font-style="normal" text-decoration="none" family="微软雅黑" text-anchor="start" size="14">- playerID: String</text><text id="ProcessOnText1200" fill="#000000" font-size="14" x="0.0" y="84.35" font-family="微软雅黑" font-weight="bold" font-style="normal" text-decoration="none" family="微软雅黑" text-anchor="start" size="14"></text></g><g id="ProcessOnG1201" transform="matrix(1.0,0.0,0.0,1.0,10.0,145.0)"><text id="ProcessOnText1202" fill="#000000" font-size="14" x="0.0" y="14.350000000000001" font-family="微软雅黑" font-weight="bold" font-style="normal" text-decoration="none" family="微软雅黑" text-anchor="start" size="14"></text><text id="ProcessOnText1203" fill="#000000" font-size="14" x="0.0" y="31.85" font-family="微软雅黑" font-weight="bold" font-style="normal" text-decoration="none" family="微软雅黑" text-anchor="start" size="14">+ getPlayerID(): String</text><text id="ProcessOnText1204" fill="#000000" font-size="14" x="0.0" y="49.35" font-family="微软雅黑" font-weight="bold" font-style="normal" text-decoration="none" family="微软雅黑" text-anchor="start" size="14">+ getRecruitNumber(): Int</text><text id="ProcessOnText1205" fill="#000000" font-size="14" x="0.0" y="66.85" font-family="微软雅黑" font-weight="bold" font-style="normal" text-decoration="none" family="微软雅黑" text-anchor="start" size="14">+ setRecruitNumber(): void</text><text id="ProcessOnText1206" fill="#000000" font-size="14" x="0.0" y="84.35" font-family="微软雅黑" font-weight="bold" font-style="normal" text-decoration="none" family="微软雅黑" text-anchor="start" size="14">+ attack(from: Province, to: Province)</text><text id="ProcessOnText1207" fill="#000000" font-size="14" x="0.0" y="101.85" font-family="微软雅黑" font-weight="bold" font-style="normal" text-decoration="none" family="微软雅黑" text-anchor="start" size="14">+ move(from: Province, to: Province)</text><text id="ProcessOnText1208" fill="#000000" font-size="14" x="0.0" y="119.35" font-family="微软雅黑" font-weight="bold" font-style="normal" text-decoration="none" family="微软雅黑" text-anchor="start" size="14">+ deployedRecruit(from: Province, to: Province)</text><text id="ProcessOnText1209" fill="#000000" font-size="14" x="0.0" y="136.85" font-family="微软雅黑" font-weight="bold" font-style="normal" text-decoration="none" family="微软雅黑" text-anchor="start" size="14"></text></g></g><g id="ProcessOnG1210"><path id="ProcessOnPath1211" d="M791.3421124123344 1394.5084872508014L556.4251129450134 1317.6459476261646" stroke="#323232" stroke-width="2.0" stroke-dasharray="none" fill="none" marker-end="url(#ProcessOnMarker1212)"/></g><g id="ProcessOnG1214"><path id="ProcessOnPath1215" d="M386.82633377425094 1408.5446195406714L528.9752164932818 1320.904069716496" stroke="#323232" stroke-width="2.0" stroke-dasharray="none" fill="none" marker-end="url(#ProcessOnMarker1216)"/></g><g id="ProcessOnG1218" transform="matrix(1.0,0.0,0.0,1.0,440.6591982929424,741.7656992968176)" opacity="1.0"><path id="ProcessOnPath1219" d="M0.0 4.0Q0.0 0.0 4.0 0.0L257.38888888888937 0.0Q261.38888888888937 0.0 261.38888888888937 4.0L261.38888888888937 170.0Q261.38888888888937 174.0 257.38888888888937 174.0L4.0 174.0Q0.0 174.0 0.0 170.0Z" stroke="#323232" stroke-width="2.0" stroke-dasharray="none" opacity="1.0" fill="#ffffff"/><path id="ProcessOnPath1220" d="M0.0 30.0L261.38888888888937 30.0M0.0 120.0L261.38888888888937 120.0" stroke="#323232" stroke-width="2.0" stroke-dasharray="none" opacity="1.0" fill="none"/><path id="ProcessOnPath1221" d="M0.0 0.0L261.38888888888937 0.0L261.38888888888937 174.0L0.0 174.0Z" stroke="none" stroke-width="0.0" stroke-dasharray="none" opacity="1.0" fill="none"/><g id="ProcessOnG1222" transform="matrix(1.0,0.0,0.0,1.0,10.0,6.25)"><text id="ProcessOnText1223" fill="#000000" font-size="14" x="0.0" y="14.350000000000001" font-family="微软雅黑" font-weight="bold" font-style="normal" text-decoration="none" family="微软雅黑" text-anchor="start" size="14">Battle</text></g><g id="ProcessOnG1224" transform="matrix(1.0,0.0,0.0,1.0,10.0,31.25)"><text id="ProcessOnText1225" fill="#000000" font-size="14" x="0.0" y="14.350000000000001" font-family="微软雅黑" font-weight="bold" font-style="normal" text-decoration="none" family="微软雅黑" text-anchor="start" size="14"></text><text id="ProcessOnText1226" fill="#000000" font-size="14" x="0.0" y="31.85" font-family="微软雅黑" font-weight="bold" font-style="normal" text-decoration="none" family="微软雅黑" text-anchor="start" size="14">- place: Province</text><text id="ProcessOnText1227" fill="#000000" font-size="14" x="0.0" y="49.35" font-family="微软雅黑" font-weight="bold" font-style="normal" text-decoration="none" family="微软雅黑" text-anchor="start" size="14">- enemiesSize: Int</text><text id="ProcessOnText1228" fill="#000000" font-size="14" x="0.0" y="66.85" font-family="微软雅黑" font-weight="bold" font-style="normal" text-decoration="none" family="微软雅黑" text-anchor="start" size="14">- enemiesFrom: Province</text><text id="ProcessOnText1229" fill="#000000" font-size="14" x="0.0" y="84.35" font-family="微软雅黑" font-weight="bold" font-style="normal" text-decoration="none" family="微软雅黑" text-anchor="start" size="14"></text></g><g id="ProcessOnG1230" transform="matrix(1.0,0.0,0.0,1.0,10.0,120.75)"><text id="ProcessOnText1231" fill="#000000" font-size="14" x="0.0" y="14.350000000000001" font-family="微软雅黑" font-weight="bold" font-style="normal" text-decoration="none" family="微软雅黑" text-anchor="start" size="14"></text><text id="ProcessOnText1232" fill="#000000" font-size="14" x="0.0" y="31.85" font-family="微软雅黑" font-weight="bold" font-style="normal" text-decoration="none" family="微软雅黑" text-anchor="start" size="14">+ calculateResults()</text><text id="ProcessOnText1233" fill="#000000" font-size="14" x="0.0" y="49.35" font-family="微软雅黑" font-weight="bold" font-style="normal" text-decoration="none" family="微软雅黑" text-anchor="start" size="14"></text></g></g><g id="ProcessOnG1234"><path id="ProcessOnPath1235" d="M702.0480871818318 828.7656992968176L811.71875 829.0" stroke="#323232" stroke-width="2.0" stroke-dasharray="none" fill="none" marker-end="url(#ProcessOnMarker1236)"/></g><g id="ProcessOnG1238" transform="matrix(1.0,0.0,0.0,1.0,677.129336799412,1623.851730300913)" opacity="1.0"><path id="ProcessOnPath1239" d="M0.0 4.0Q0.0 0.0 4.0 0.0L226.0 0.0Q230.0 0.0 230.0 4.0L230.0 106.0Q230.0 110.0 226.0 110.0L4.0 110.0Q0.0 110.0 0.0 106.0Z" stroke="#323232" stroke-width="2.0" stroke-dasharray="none" opacity="1.0" fill="#ffffff"/><path id="ProcessOnPath1240" d="M0.0 30.0L230.0 30.0" stroke="#323232" stroke-width="2.0" stroke-dasharray="none" opacity="1.0" fill="none"/><path id="ProcessOnPath1241" d="M0.0 0.0L230.0 0.0L230.0 110.0L0.0 110.0Z" stroke="none" stroke-width="0.0" stroke-dasharray="none" opacity="1.0" fill="none"/><g id="ProcessOnG1242" transform="matrix(1.0,0.0,0.0,1.0,10.0,6.25)"><text id="ProcessOnText1243" fill="#000000" font-size="14" x="0.0" y="14.350000000000001" font-family="微软雅黑" font-weight="bold" font-style="normal" text-decoration="none" family="微软雅黑" text-anchor="start" size="14">&lt;&lt;enumeration&gt;&gt; AILevel</text></g><g id="ProcessOnG1244" transform="matrix(1.0,0.0,0.0,1.0,10.0,26.25)"><text id="ProcessOnText1245" fill="#000000" font-size="14" x="0.0" y="14.350000000000001" font-family="微软雅黑" font-weight="bold" font-style="normal" text-decoration="none" family="微软雅黑" text-anchor="start" size="14"></text><text id="ProcessOnText1246" fill="#000000" font-size="14" x="0.0" y="31.85" font-family="微软雅黑" font-weight="bold" font-style="normal" text-decoration="none" family="微软雅黑" text-anchor="start" size="14">simple</text><text id="ProcessOnText1247" fill="#000000" font-size="14" x="0.0" y="49.35" font-family="微软雅黑" font-weight="bold" font-style="normal" text-decoration="none" family="微软雅黑" text-anchor="start" size="14">normal</text><text id="ProcessOnText1248" fill="#000000" font-size="14" x="0.0" y="66.85" font-family="微软雅黑" font-weight="bold" font-style="normal" text-decoration="none" family="微软雅黑" text-anchor="start" size="14">hard</text><text id="ProcessOnText1249" fill="#000000" font-size="14" x="0.0" y="84.35" font-family="微软雅黑" font-weight="bold" font-style="normal" text-decoration="none" family="微软雅黑" text-anchor="start" size="14"></text></g></g><g id="ProcessOnG1250"><path id="ProcessOnPath1251" d="M792.1293367994122 1623.851730300913L791.5386330926045 1568.8342671033056" stroke="#323232" stroke-width="2.0" stroke-dasharray="none" fill="none" marker-end="url(#ProcessOnMarker1252)"/></g></g></g></svg>