<svg xmlns="http://www.w3.org/2000/svg" xmlns:xlink="http://www.w3.org/1999/xlink" id="processonSvg1000" viewBox="106.0 97.0 752.0 709.0" width="752.0" height="709.0"><defs id="ProcessOnDefs1001"><marker id="ProcessOnMarker1036" markerUnits="userSpaceOnUse" orient="auto" markerWidth="16.23606797749979" markerHeight="10.550836550532098" viewBox="-1.0 -1.3763819204711736 16.23606797749979 10.550836550532098" refX="-1.0" refY="3.8990363547948754"><path id="ProcessOnPath1037" d="M12.0 3.8990363547948754L0.0 7.798072709589751V0.0Z" stroke="#323232" stroke-width="2.0" fill="#323232" transform="matrix(1.0,0.0,0.0,1.0,0.0,0.0)"/></marker><marker id="ProcessOnMarker1040" markerUnits="userSpaceOnUse" orient="auto" markerWidth="16.23606797749979" markerHeight="10.550836550532098" viewBox="-1.0 -1.3763819204711736 16.23606797749979 10.550836550532098" refX="-1.0" refY="3.8990363547948754"><path id="ProcessOnPath1041" d="M12.0 3.8990363547948754L0.0 7.798072709589751V0.0Z" stroke="#323232" stroke-width="2.0" fill="#323232" transform="matrix(1.0,0.0,0.0,1.0,0.0,0.0)"/></marker><marker id="ProcessOnMarker1068" markerUnits="userSpaceOnUse" orient="auto" markerWidth="16.23606797749979" markerHeight="10.550836550532098" viewBox="-1.0 -1.3763819204711736 16.23606797749979 10.550836550532098" refX="-1.0" refY="3.8990363547948754"><path id="ProcessOnPath1069" d="M12.0 3.8990363547948754L0.0 7.798072709589751V0.0Z" stroke="#323232" stroke-width="2.0" fill="#323232" transform="matrix(1.0,0.0,0.0,1.0,0.0,0.0)"/></marker><marker id="ProcessOnMarker1072" markerUnits="userSpaceOnUse" orient="auto" markerWidth="16.23606797749979" markerHeight="10.550836550532098" viewBox="-1.0 -1.3763819204711736 16.23606797749979 10.550836550532098" refX="-1.0" refY="3.8990363547948754"><path id="ProcessOnPath1073" d="M12.0 3.8990363547948754L0.0 7.798072709589751V0.0Z" stroke="#323232" stroke-width="2.0" fill="#323232" transform="matrix(1.0,0.0,0.0,1.0,0.0,0.0)"/></marker><marker id="ProcessOnMarker1076" markerUnits="userSpaceOnUse" orient="auto" markerWidth="16.23606797749979" markerHeight="10.550836550532098" viewBox="-1.0 -1.3763819204711736 16.23606797749979 10.550836550532098" refX="-1.0" refY="3.8990363547948754"><path id="ProcessOnPath1077" d="M12.0 3.8990363547948754L0.0 7.798072709589751V0.0Z" stroke="#323232" stroke-width="2.0" fill="#323232" transform="matrix(1.0,0.0,0.0,1.0,0.0,0.0)"/></marker><marker id="ProcessOnMarker1080" markerUnits="userSpaceOnUse" orient="auto" markerWidth="16.23606797749979" markerHeight="10.550836550532098" viewBox="-1.0 -1.3763819204711736 16.23606797749979 10.550836550532098" refX="-1.0" refY="3.8990363547948754"><path id="ProcessOnPath1081" d="M12.0 3.8990363547948754L0.0 7.798072709589751V0.0Z" stroke="#323232" stroke-width="2.0" fill="#323232" transform="matrix(1.0,0.0,0.0,1.0,0.0,0.0)"/></marker></defs><g id="ProcessOnG1002"><path id="ProcessOnPath1003" d="M106.0 97.0H858.0V806.0H106.0V97.0Z" fill="none"/><g id="ProcessOnG1004"><g id="ProcessOnG1005" transform="matrix(1.0,0.0,0.0,1.0,126.0,117.0)" opacity="1.0"><path id="ProcessOnPath1006" d="M0.0 0.0L712.0 0.0L712.0 669.0L0.0 669.0Z" stroke="#323232" stroke-width="2.0" stroke-dasharray="none" opacity="1.0" fill="#ffffff"/></g><g id="ProcessOnG1007" transform="matrix(1.0,0.0,0.0,1.0,605.0,170.0)" opacity="1.0"><path id="ProcessOnPath1008" d="M0.0 0.0L199.0 0.0L199.0 74.0L0.0 74.0Z" stroke="none" stroke-width="0.0" stroke-dasharray="none" opacity="1.0" fill="none"/><g id="ProcessOnG1009" transform="matrix(1.0,0.0,0.0,1.0,0.0,17.0)"><text id="ProcessOnText1010" fill="#000000" font-size="32" x="98.5" y="32.8" font-family="Times New Roman" font-weight="bold" font-style="normal" text-decoration="none" family="Times New Roman" text-anchor="middle" size="32">RISK GAME</text></g></g><g id="ProcessOnG1011" transform="matrix(1.0,0.0,0.0,1.0,161.0,152.0)" opacity="1.0"><path id="ProcessOnPath1012" d="M0.0 4.0Q0.0 0.0 4.0 0.0L417.0 0.0Q421.0 0.0 421.0 4.0L421.0 131.0Q421.0 135.0 417.0 135.0L4.0 135.0Q0.0 135.0 0.0 131.0Z" stroke="#000000" stroke-width="2.0" stroke-dasharray="none" opacity="1.0" fill="#cfcfcf"/></g><g id="ProcessOnG1013" transform="matrix(1.0,0.0,0.0,1.0,354.5,164.0)" opacity="1.0"><path id="ProcessOnPath1014" d="M0.0 0.0L118.5 0.0L118.5 66.0L0.0 66.0Z" stroke="#323232" stroke-width="2.0" stroke-dasharray="none" opacity="1.0" fill="#ffffff"/><g id="ProcessOnG1015" transform="matrix(1.0,0.0,0.0,1.0,10.0,13.0)"><text id="ProcessOnText1016" fill="#000000" font-size="16" x="48.25" y="16.4" font-family="Times New Roman" font-weight="normal" font-style="normal" text-decoration="none" family="Times New Roman" text-anchor="middle" size="16">User Interface </text><text id="ProcessOnText1017" fill="#000000" font-size="16" x="48.25" y="36.4" font-family="Times New Roman" font-weight="normal" font-style="normal" text-decoration="none" family="Times New Roman" text-anchor="middle" size="16">System</text></g></g><g id="ProcessOnG1018" transform="matrix(1.0,0.0,0.0,1.0,181.0,244.0)" opacity="1.0"><path id="ProcessOnPath1019" d="M0.0 0.0L123.5 0.0L123.5 43.0L0.0 43.0Z" stroke="none" stroke-width="0.0" stroke-dasharray="none" opacity="1.0" fill="none"/><g id="ProcessOnG1020" transform="matrix(1.0,0.0,0.0,1.0,0.0,5.875)"><text id="ProcessOnText1021" fill="#000000" font-size="25" x="60.75" y="25.625" font-family="微软雅黑" font-weight="bold" font-style="normal" text-decoration="none" family="微软雅黑" text-anchor="middle" size="25">View</text></g></g><g id="ProcessOnG1022" transform="matrix(1.0,0.0,0.0,1.0,161.5,330.0)" opacity="1.0"><path id="ProcessOnPath1023" d="M0.0 4.0Q0.0 0.0 4.0 0.0L637.0 0.0Q641.0 0.0 641.0 4.0L641.0 134.75Q641.0 138.75 637.0 138.75L4.0 138.75Q0.0 138.75 0.0 134.75Z" stroke="#323232" stroke-width="2.0" stroke-dasharray="none" opacity="1.0" fill="#cfcfcf"/></g><g id="ProcessOnG1024" transform="matrix(1.0,0.0,0.0,1.0,245.5,354.25)" opacity="1.0"><path id="ProcessOnPath1025" d="M0.0 0.0L144.5 0.0L144.5 74.5L0.0 74.5Z" stroke="#323232" stroke-width="2.0" stroke-dasharray="none" opacity="1.0" fill="#ffffff"/><g id="ProcessOnG1026" transform="matrix(1.0,0.0,0.0,1.0,10.0,17.25)"><text id="ProcessOnText1027" fill="#000000" font-size="16" x="61.25" y="16.4" font-family="Times New Roman" font-weight="normal" font-style="normal" text-decoration="none" family="Times New Roman" text-anchor="middle" size="16">Behavior Handler </text><text id="ProcessOnText1028" fill="#000000" font-size="16" x="61.25" y="36.4" font-family="Times New Roman" font-weight="normal" font-style="normal" text-decoration="none" family="Times New Roman" text-anchor="middle" size="16">System</text></g></g><g id="ProcessOnG1029" transform="matrix(1.0,0.0,0.0,1.0,453.25,354.25)" opacity="1.0"><path id="ProcessOnPath1030" d="M0.0 0.0L117.5 0.0L117.5 74.5L0.0 74.5Z" stroke="#323232" stroke-width="2.0" stroke-dasharray="none" opacity="1.0" fill="#ffffff"/><g id="ProcessOnG1031" transform="matrix(1.0,0.0,0.0,1.0,10.0,17.25)"><text id="ProcessOnText1032" fill="#000000" font-size="16" x="47.75" y="16.4" font-family="Times New Roman" font-weight="normal" font-style="normal" text-decoration="none" family="Times New Roman" text-anchor="middle" size="16">View Updater </text><text id="ProcessOnText1033" fill="#000000" font-size="16" x="47.75" y="36.4" font-family="Times New Roman" font-weight="normal" font-style="normal" text-decoration="none" family="Times New Roman" text-anchor="middle" size="16">System</text></g></g><g id="ProcessOnG1034"><path id="ProcessOnPath1035" d="M354.5 197.0L317.75 197.0L317.75 339.0139320225002" stroke="#323232" stroke-width="2.0" stroke-dasharray="none" fill="none" marker-end="url(#ProcessOnMarker1036)"/></g><g id="ProcessOnG1038"><path id="ProcessOnPath1039" d="M512.0 354.25L512.0 197.0L488.2360679774998 197.0" stroke="#323232" stroke-width="2.0" stroke-dasharray="none" fill="none" marker-end="url(#ProcessOnMarker1040)"/></g><g id="ProcessOnG1042" transform="matrix(1.0,0.0,0.0,1.0,161.0,428.75)" opacity="1.0"><path id="ProcessOnPath1043" d="M0.0 0.0L160.0 0.0L160.0 40.0L0.0 40.0Z" stroke="none" stroke-width="0.0" stroke-dasharray="none" opacity="1.0" fill="none"/><g id="ProcessOnG1044" transform="matrix(1.0,0.0,0.0,1.0,0.0,4.375)"><text id="ProcessOnText1045" fill="#000000" font-size="25" x="79.0" y="25.625" font-family="微软雅黑" font-weight="bold" font-style="normal" text-decoration="none" family="微软雅黑" text-anchor="middle" size="25">Controller</text></g></g><g id="ProcessOnG1046" transform="matrix(1.0,0.0,0.0,1.0,161.0,506.0)" opacity="1.0"><path id="ProcessOnPath1047" d="M0.0 4.0Q0.0 0.0 4.0 0.0L638.0 0.0Q642.0 0.0 642.0 4.0L642.0 245.0Q642.0 249.0 638.0 249.0L4.0 249.0Q0.0 249.0 0.0 245.0Z" stroke="#323232" stroke-width="2.0" stroke-dasharray="none" opacity="1.0" fill="#cfcfcf"/></g><g id="ProcessOnG1048" transform="matrix(1.0,0.0,0.0,1.0,444.5,520.5)" opacity="1.0"><path id="ProcessOnPath1049" d="M0.0 0.0L135.0 0.0L135.0 74.5L0.0 74.5Z" stroke="#323232" stroke-width="2.0" stroke-dasharray="none" opacity="1.0" fill="#ffffff"/><g id="ProcessOnG1050" transform="matrix(1.0,0.0,0.0,1.0,10.0,27.25)"><text id="ProcessOnText1051" fill="#000000" font-size="16" x="56.5" y="16.4" font-family="Times New Roman" font-weight="normal" font-style="normal" text-decoration="none" family="Times New Roman" text-anchor="middle" size="16">Game Model</text></g></g><g id="ProcessOnG1052" transform="matrix(1.0,0.0,0.0,1.0,443.5,655.75)" opacity="1.0"><path id="ProcessOnPath1053" d="M0.0 0.0L137.0 0.0L137.0 73.25L0.0 73.25Z" stroke="#323232" stroke-width="2.0" stroke-dasharray="none" opacity="1.0" fill="#ffffff"/><g id="ProcessOnG1054" transform="matrix(1.0,0.0,0.0,1.0,10.0,16.625)"><text id="ProcessOnText1055" fill="#000000" font-size="16" x="57.5" y="16.4" font-family="Times New Roman" font-weight="normal" font-style="normal" text-decoration="none" family="Times New Roman" text-anchor="middle" size="16">Artificial Intelligent </text><text id="ProcessOnText1056" fill="#000000" font-size="16" x="57.5" y="36.4" font-family="Times New Roman" font-weight="normal" font-style="normal" text-decoration="none" family="Times New Roman" text-anchor="middle" size="16">System</text></g></g><g id="ProcessOnG1057" transform="matrix(1.0,0.0,0.0,1.0,654.5,356.5)" opacity="1.0"><path id="ProcessOnPath1058" d="M0.0 0.0L100.0 0.0L100.0 70.0L0.0 70.0Z" stroke="#323232" stroke-width="2.0" stroke-dasharray="none" opacity="1.0" fill="#ffffff"/><g id="ProcessOnG1059" transform="matrix(1.0,0.0,0.0,1.0,10.0,15.0)"><text id="ProcessOnText1060" fill="#000000" font-size="16" x="39.0" y="16.4" font-family="Times New Roman" font-weight="normal" font-style="normal" text-decoration="none" family="Times New Roman" text-anchor="middle" size="16">Notification </text><text id="ProcessOnText1061" fill="#000000" font-size="16" x="39.0" y="36.4" font-family="Times New Roman" font-weight="normal" font-style="normal" text-decoration="none" family="Times New Roman" text-anchor="middle" size="16">Centre</text></g></g><g id="ProcessOnG1062" transform="matrix(1.0,0.0,0.0,1.0,162.75,715.0)" opacity="1.0"><path id="ProcessOnPath1063" d="M0.0 0.0L160.0 0.0L160.0 40.0L0.0 40.0Z" stroke="none" stroke-width="0.0" stroke-dasharray="none" opacity="1.0" fill="none"/><g id="ProcessOnG1064" transform="matrix(1.0,0.0,0.0,1.0,0.0,4.375)"><text id="ProcessOnText1065" fill="#000000" font-size="25" x="79.0" y="25.625" font-family="微软雅黑" font-weight="bold" font-style="normal" text-decoration="none" family="微软雅黑" text-anchor="middle" size="25">Model</text></g></g><g id="ProcessOnG1066"><path id="ProcessOnPath1067" d="M317.75 428.75L317.75 557.75L429.2639320225002 557.75" stroke="#323232" stroke-width="2.0" stroke-dasharray="none" fill="none" marker-end="url(#ProcessOnMarker1068)"/></g><g id="ProcessOnG1070"><path id="ProcessOnPath1071" d="M579.5 557.75L704.5 557.75L704.5 441.7360679774998" stroke="#323232" stroke-width="2.0" stroke-dasharray="10.0 4.0" fill="none" marker-end="url(#ProcessOnMarker1072)"/></g><g id="ProcessOnG1074"><path id="ProcessOnPath1075" d="M654.5 391.5L612.625 391.5L612.625 391.5L585.9860679774998 391.5" stroke="#323232" stroke-width="2.0" stroke-dasharray="10.0 4.0" fill="none" marker-end="url(#ProcessOnMarker1076)"/></g><g id="ProcessOnG1078"><path id="ProcessOnPath1079" d="M512.0 655.75L512.0 625.375L512.0 625.375L512.0 610.2360679774998" stroke="#323232" stroke-width="2.0" stroke-dasharray="none" fill="none" marker-end="url(#ProcessOnMarker1080)"/></g></g></g></svg>