<svg xmlns="http://www.w3.org/2000/svg" xmlns:xlink="http://www.w3.org/1999/xlink" id="processonSvg1000" viewBox="519.0 212.0 922.0 1137.0" width="922.0" height="1137.0"><defs id="ProcessOnDefs1001"><marker id="ProcessOnMarker1079" markerUnits="userSpaceOnUse" orient="auto" markerWidth="16.23606797749979" markerHeight="10.550836550532098" viewBox="-1.0 -1.3763819204711736 16.23606797749979 10.550836550532098" refX="-1.0" refY="3.8990363547948754"><path id="ProcessOnPath1080" d="M12.0 3.8990363547948754L0.0 7.798072709589751V0.0Z" stroke="#323232" stroke-width="2.0" fill="#323232" transform="matrix(1.0,0.0,0.0,1.0,0.0,0.0)"/></marker><marker id="ProcessOnMarker1088" markerUnits="userSpaceOnUse" orient="auto" markerWidth="16.23606797749979" markerHeight="10.550836550532098" viewBox="-1.0 -1.3763819204711736 16.23606797749979 10.550836550532098" refX="-1.0" refY="3.8990363547948754"><path id="ProcessOnPath1089" d="M12.0 3.8990363547948754L0.0 7.798072709589751V0.0Z" stroke="#323232" stroke-width="2.0" fill="#323232" transform="matrix(1.0,0.0,0.0,1.0,0.0,0.0)"/></marker><marker id="ProcessOnMarker1100" markerUnits="userSpaceOnUse" orient="auto" markerWidth="16.23606797749979" markerHeight="10.550836550532098" viewBox="-1.0 -1.3763819204711736 16.23606797749979 10.550836550532098" refX="-1.0" refY="3.8990363547948754"><path id="ProcessOnPath1101" d="M12.0 3.8990363547948754L0.0 7.798072709589751V0.0Z" stroke="#323232" stroke-width="2.0" fill="#323232" transform="matrix(1.0,0.0,0.0,1.0,0.0,0.0)"/></marker><marker id="ProcessOnMarker1104" markerUnits="userSpaceOnUse" orient="auto" markerWidth="16.23606797749979" markerHeight="10.550836550532098" viewBox="-1.0 -1.3763819204711736 16.23606797749979 10.550836550532098" refX="-1.0" refY="3.8990363547948754"><path id="ProcessOnPath1105" d="M12.0 3.8990363547948754L0.0 7.798072709589751V0.0Z" stroke="#323232" stroke-width="2.0" fill="#323232" transform="matrix(1.0,0.0,0.0,1.0,0.0,0.0)"/></marker><marker id="ProcessOnMarker1108" markerUnits="userSpaceOnUse" orient="auto" markerWidth="16.23606797749979" markerHeight="10.550836550532098" viewBox="-1.0 -1.3763819204711736 16.23606797749979 10.550836550532098" refX="-1.0" refY="3.8990363547948754"><path id="ProcessOnPath1109" d="M12.0 3.8990363547948754L0.0 7.798072709589751V0.0Z" stroke="#323232" stroke-width="2.0" fill="#fff" transform="matrix(1.0,0.0,0.0,1.0,0.0,0.0)"/></marker><marker id="ProcessOnMarker1112" markerUnits="userSpaceOnUse" orient="auto" markerWidth="16.23606797749979" markerHeight="10.550836550532098" viewBox="-1.0 -1.3763819204711736 16.23606797749979 10.550836550532098" refX="-1.0" refY="3.8990363547948754"><path id="ProcessOnPath1113" d="M12.0 3.8990363547948754L0.0 7.798072709589751V0.0Z" stroke="#323232" stroke-width="2.0" fill="#fff" transform="matrix(1.0,0.0,0.0,1.0,0.0,0.0)"/></marker><marker id="ProcessOnMarker1116" markerUnits="userSpaceOnUse" orient="auto" markerWidth="16.23606797749979" markerHeight="10.550836550532098" viewBox="-1.0 -1.3763819204711736 16.23606797749979 10.550836550532098" refX="-1.0" refY="3.8990363547948754"><path id="ProcessOnPath1117" d="M12.0 3.8990363547948754L0.0 7.798072709589751V0.0Z" stroke="#323232" stroke-width="2.0" fill="#fff" transform="matrix(1.0,0.0,0.0,1.0,0.0,0.0)"/></marker></defs><g id="ProcessOnG1002"><path id="ProcessOnPath1003" d="M519.0 212.0H1441.0V1349.0H519.0V212.0Z" fill="none"/><g id="ProcessOnG1004"><g id="ProcessOnG1005" transform="matrix(1.0,0.0,0.0,1.0,698.0,232.0)" opacity="1.0"><path id="ProcessOnPath1006" d="M0.0 4.0Q0.0 0.0 4.0 0.0L719.0 0.0Q723.0 0.0 723.0 4.0L723.0 1093.0Q723.0 1097.0 719.0 1097.0L4.0 1097.0Q0.0 1097.0 0.0 1093.0Z" stroke="#323232" stroke-width="4.0" stroke-dasharray="none" opacity="1.0" fill="#ffffff"/></g><g id="ProcessOnG1007" transform="matrix(1.0,0.0,0.0,1.0,559.0,615.5)" opacity="1.0"><path id="ProcessOnPath1008" d="M23.333333333333332 12.5C23.333333333333332 -4.166666666666666 46.666666666666664 -4.166666666666666 46.666666666666664 12.5C46.666666666666664 29.166666666666668 23.333333333333332 29.166666666666668 23.333333333333332 12.5M35.0 25.0L35.0 75.0M35.0 75.0L5.833333333333333 100.0M35.0 75.0L64.16666666666666 100.0M0.0 50.0L70.0 50.0" stroke="#323232" stroke-width="2.0" stroke-dasharray="none" opacity="1.0" fill="#ffffff"/><path id="ProcessOnPath1009" d="M0.0 0.0L70.0 0.0L70.0 100.0L0.0 100.0Z" stroke="none" stroke-width="0.0" stroke-dasharray="none" opacity="1.0" fill="none"/><g id="ProcessOnG1010" transform="matrix(1.0,0.0,0.0,1.0,-20.0,105.625)"><text id="ProcessOnText1011" fill="#000000" font-size="15" x="54.0" y="15.375" font-family="微软雅黑" font-weight="bold" font-style="normal" text-decoration="none" family="微软雅黑" text-anchor="middle" size="15">Human Player</text></g></g><g id="ProcessOnG1012" transform="matrix(1.0,0.0,0.0,1.0,821.0,287.0)" opacity="1.0"><path id="ProcessOnPath1013" d="M0.0 23.5C0.0 -7.833333333333333 170.0 -7.833333333333333 170.0 23.5C170.0 54.833333333333336 0.0 54.833333333333336 0.0 23.5Z" stroke="#323232" stroke-width="2.0" stroke-dasharray="none" opacity="1.0" fill="#ffffff"/><g id="ProcessOnG1014" transform="matrix(1.0,0.0,0.0,1.0,10.0,14.125)"><text id="ProcessOnText1015" fill="#000000" font-size="15" x="74.0" y="15.375" font-family="微软雅黑" font-weight="bold" font-style="normal" text-decoration="none" family="微软雅黑" text-anchor="middle" size="15">configurate game</text></g></g><g id="ProcessOnG1016" transform="matrix(1.0,0.0,0.0,1.0,1124.0,257.0)" opacity="1.0"><path id="ProcessOnPath1017" d="M0.0 25.0C0.0 -8.333333333333334 180.0 -8.333333333333334 180.0 25.0C180.0 58.333333333333336 0.0 58.333333333333336 0.0 25.0Z" stroke="#323232" stroke-width="2.0" stroke-dasharray="none" opacity="1.0" fill="#ffffff"/><g id="ProcessOnG1018" transform="matrix(1.0,0.0,0.0,1.0,10.0,6.25)"><text id="ProcessOnText1019" fill="#000000" font-size="15" x="79.0" y="15.375" font-family="微软雅黑" font-weight="bold" font-style="normal" text-decoration="none" family="微软雅黑" text-anchor="middle" size="15">Select type of other </text><text id="ProcessOnText1020" fill="#000000" font-size="15" x="79.0" y="34.125" font-family="微软雅黑" font-weight="bold" font-style="normal" text-decoration="none" family="微软雅黑" text-anchor="middle" size="15">player</text></g></g><g id="ProcessOnG1021" transform="matrix(1.0,0.0,0.0,1.0,559.0,1184.0)" opacity="1.0"><path id="ProcessOnPath1022" d="M23.333333333333332 12.5C23.333333333333332 -4.166666666666666 46.666666666666664 -4.166666666666666 46.666666666666664 12.5C46.666666666666664 29.166666666666668 23.333333333333332 29.166666666666668 23.333333333333332 12.5M35.0 25.0L35.0 75.0M35.0 75.0L5.833333333333333 100.0M35.0 75.0L64.16666666666666 100.0M0.0 50.0L70.0 50.0" stroke="#323232" stroke-width="2.0" stroke-dasharray="none" opacity="1.0" fill="#ffffff"/><path id="ProcessOnPath1023" d="M0.0 0.0L70.0 0.0L70.0 100.0L0.0 100.0Z" stroke="none" stroke-width="0.0" stroke-dasharray="none" opacity="1.0" fill="none"/><g id="ProcessOnG1024" transform="matrix(1.0,0.0,0.0,1.0,-20.0,96.25)"><text id="ProcessOnText1025" fill="#000000" font-size="15" x="54.0" y="15.375" font-family="微软雅黑" font-weight="bold" font-style="normal" text-decoration="none" family="微软雅黑" text-anchor="middle" size="15">Human </text><text id="ProcessOnText1026" fill="#000000" font-size="15" x="54.0" y="34.125" font-family="微软雅黑" font-weight="bold" font-style="normal" text-decoration="none" family="微软雅黑" text-anchor="middle" size="15">Experimenter</text></g></g><g id="ProcessOnG1027" transform="matrix(1.0,0.0,0.0,1.0,1125.0,700.0)" opacity="1.0"><path id="ProcessOnPath1028" d="M0.0 25.0C0.0 -8.333333333333334 180.0 -8.333333333333334 180.0 25.0C180.0 58.333333333333336 0.0 58.333333333333336 0.0 25.0Z" stroke="#323232" stroke-width="2.0" stroke-dasharray="none" opacity="1.0" fill="#ffffff"/><g id="ProcessOnG1029" transform="matrix(1.0,0.0,0.0,1.0,10.0,15.625)"><text id="ProcessOnText1030" fill="#000000" font-size="15" x="79.0" y="15.375" font-family="微软雅黑" font-weight="bold" font-style="normal" text-decoration="none" family="微软雅黑" text-anchor="middle" size="15">Move Army</text></g></g><g id="ProcessOnG1031" transform="matrix(1.0,0.0,0.0,1.0,1125.0,581.5)" opacity="1.0"><path id="ProcessOnPath1032" d="M0.0 25.0C0.0 -8.333333333333334 180.0 -8.333333333333334 180.0 25.0C180.0 58.333333333333336 0.0 58.333333333333336 0.0 25.0Z" stroke="#323232" stroke-width="2.0" stroke-dasharray="none" opacity="1.0" fill="#ffffff"/><g id="ProcessOnG1033" transform="matrix(1.0,0.0,0.0,1.0,10.0,15.625)"><text id="ProcessOnText1034" fill="#000000" font-size="15" x="79.0" y="15.375" font-family="微软雅黑" font-weight="bold" font-style="normal" text-decoration="none" family="微软雅黑" text-anchor="middle" size="15">Invasion</text></g></g><g id="ProcessOnG1035" transform="matrix(1.0,0.0,0.0,1.0,1125.0,640.5)" opacity="1.0"><path id="ProcessOnPath1036" d="M0.0 25.0C0.0 -8.333333333333334 180.0 -8.333333333333334 180.0 25.0C180.0 58.333333333333336 0.0 58.333333333333336 0.0 25.0Z" stroke="#323232" stroke-width="2.0" stroke-dasharray="none" opacity="1.0" fill="#ffffff"/><g id="ProcessOnG1037" transform="matrix(1.0,0.0,0.0,1.0,10.0,15.625)"><text id="ProcessOnText1038" fill="#000000" font-size="15" x="79.0" y="15.375" font-family="微软雅黑" font-weight="bold" font-style="normal" text-decoration="none" family="微软雅黑" text-anchor="middle" size="15">Attack</text></g></g><g id="ProcessOnG1039" transform="matrix(1.0,0.0,0.0,1.0,1125.0,457.5)" opacity="1.0"><path id="ProcessOnPath1040" d="M0.0 25.0C0.0 -8.333333333333334 180.0 -8.333333333333334 180.0 25.0C180.0 58.333333333333336 0.0 58.333333333333336 0.0 25.0Z" stroke="#323232" stroke-width="2.0" stroke-dasharray="none" opacity="1.0" fill="#ffffff"/><g id="ProcessOnG1041" transform="matrix(1.0,0.0,0.0,1.0,10.0,15.625)"><text id="ProcessOnText1042" fill="#000000" font-size="15" x="79.0" y="15.375" font-family="微软雅黑" font-weight="bold" font-style="normal" text-decoration="none" family="微软雅黑" text-anchor="middle" size="15">Deploy recruit</text></g></g><g id="ProcessOnG1043"><path id="ProcessOnPath1044" d="M629.0 665.5L821.0 310.5" stroke="#323232" stroke-width="2.0" stroke-dasharray="none" fill="none"/></g><g id="ProcessOnG1045" transform="matrix(1.0,0.0,0.0,1.0,812.0,805.5)" opacity="1.0"><path id="ProcessOnPath1046" d="M0.0 25.0C0.0 -8.333333333333334 180.0 -8.333333333333334 180.0 25.0C180.0 58.333333333333336 0.0 58.333333333333336 0.0 25.0Z" stroke="#323232" stroke-width="2.0" stroke-dasharray="none" opacity="1.0" fill="#ffffff"/><g id="ProcessOnG1047" transform="matrix(1.0,0.0,0.0,1.0,10.0,6.25)"><text id="ProcessOnText1048" fill="#000000" font-size="15" x="79.0" y="15.375" font-family="微软雅黑" font-weight="bold" font-style="normal" text-decoration="none" family="微软雅黑" text-anchor="middle" size="15">Observe enemy on </text><text id="ProcessOnText1049" fill="#000000" font-size="15" x="79.0" y="34.125" font-family="微软雅黑" font-weight="bold" font-style="normal" text-decoration="none" family="微软雅黑" text-anchor="middle" size="15">the map</text></g></g><g id="ProcessOnG1050" transform="matrix(1.0,0.0,0.0,1.0,796.5,869.0)" opacity="1.0"><path id="ProcessOnPath1051" d="M0.0 24.0C0.0 -8.0 211.0 -8.0 211.0 24.0C211.0 56.0 0.0 56.0 0.0 24.0Z" stroke="#323232" stroke-width="2.0" stroke-dasharray="none" opacity="1.0" fill="#ffffff"/><g id="ProcessOnG1052" transform="matrix(1.0,0.0,0.0,1.0,10.0,5.25)"><text id="ProcessOnText1053" fill="#000000" font-size="15" x="94.5" y="15.375" font-family="微软雅黑" font-weight="bold" font-style="normal" text-decoration="none" family="微软雅黑" text-anchor="middle" size="15">Observe the armies and </text><text id="ProcessOnText1054" fill="#000000" font-size="15" x="94.5" y="34.125" font-family="微软雅黑" font-weight="bold" font-style="normal" text-decoration="none" family="微软雅黑" text-anchor="middle" size="15">territories on the map</text></g></g><g id="ProcessOnG1055" transform="matrix(1.0,0.0,0.0,1.0,812.0,1011.0)" opacity="1.0"><path id="ProcessOnPath1056" d="M0.0 25.0C0.0 -8.333333333333334 180.0 -8.333333333333334 180.0 25.0C180.0 58.333333333333336 0.0 58.333333333333336 0.0 25.0Z" stroke="#323232" stroke-width="2.0" stroke-dasharray="none" opacity="1.0" fill="#ffffff"/><g id="ProcessOnG1057" transform="matrix(1.0,0.0,0.0,1.0,10.0,15.625)"><text id="ProcessOnText1058" fill="#000000" font-size="15" x="79.0" y="15.375" font-family="微软雅黑" font-weight="bold" font-style="normal" text-decoration="none" family="微软雅黑" text-anchor="middle" size="15">Defeated</text></g></g><g id="ProcessOnG1059" transform="matrix(1.0,0.0,0.0,1.0,812.0,1069.0)" opacity="1.0"><path id="ProcessOnPath1060" d="M0.0 25.0C0.0 -8.333333333333334 180.0 -8.333333333333334 180.0 25.0C180.0 58.333333333333336 0.0 58.333333333333336 0.0 25.0Z" stroke="#323232" stroke-width="2.0" stroke-dasharray="none" opacity="1.0" fill="#ffffff"/><g id="ProcessOnG1061" transform="matrix(1.0,0.0,0.0,1.0,10.0,15.625)"><text id="ProcessOnText1062" fill="#000000" font-size="15" x="79.0" y="15.375" font-family="微软雅黑" font-weight="bold" font-style="normal" text-decoration="none" family="微软雅黑" text-anchor="middle" size="15">Victory</text></g></g><g id="ProcessOnG1063"><path id="ProcessOnPath1064" d="M629.0 665.5L812.0 830.5" stroke="#323232" stroke-width="2.0" stroke-dasharray="none" fill="none"/></g><g id="ProcessOnG1065"><path id="ProcessOnPath1066" d="M629.0 665.5L796.5 893.0" stroke="#323232" stroke-width="2.0" stroke-dasharray="none" fill="none"/></g><g id="ProcessOnG1067"><path id="ProcessOnPath1068" d="M629.0 665.5L812.0 1036.0" stroke="#323232" stroke-width="2.0" stroke-dasharray="none" fill="none"/></g><g id="ProcessOnG1069"><path id="ProcessOnPath1070" d="M629.0 665.5L812.0 1094.0" stroke="#323232" stroke-width="2.0" stroke-dasharray="none" fill="none"/></g><g id="ProcessOnG1071" transform="matrix(1.0,0.0,0.0,1.0,817.0,1209.0)" opacity="1.0"><path id="ProcessOnPath1072" d="M0.0 25.0C0.0 -8.333333333333334 180.0 -8.333333333333334 180.0 25.0C180.0 58.333333333333336 0.0 58.333333333333336 0.0 25.0Z" stroke="#323232" stroke-width="2.0" stroke-dasharray="none" opacity="1.0" fill="#ffffff"/><g id="ProcessOnG1073" transform="matrix(1.0,0.0,0.0,1.0,10.0,15.625)"><text id="ProcessOnText1074" fill="#000000" font-size="15" x="79.0" y="15.375" font-family="微软雅黑" font-weight="bold" font-style="normal" text-decoration="none" family="微软雅黑" text-anchor="middle" size="15">Experiment</text></g></g><g id="ProcessOnG1075"><path id="ProcessOnPath1076" d="M629.0 1234.0L817.0 1234.0" stroke="#323232" stroke-width="2.0" stroke-dasharray="none" fill="none"/></g><g id="ProcessOnG1077"><path id="ProcessOnPath1078" d="M991.0 310.5L1109.1021359505532 285.19239943916716" stroke="#323232" stroke-width="2.0" stroke-dasharray="10.0 4.0" fill="none" marker-end="url(#ProcessOnMarker1079)"/></g><g id="ProcessOnG1081" transform="matrix(1.0,0.0,0.0,1.0,1124.0,314.0)" opacity="1.0"><path id="ProcessOnPath1082" d="M0.0 25.0C0.0 -8.333333333333334 180.0 -8.333333333333334 180.0 25.0C180.0 58.333333333333336 0.0 58.333333333333336 0.0 25.0Z" stroke="#323232" stroke-width="2.0" stroke-dasharray="none" opacity="1.0" fill="#ffffff"/><g id="ProcessOnG1083" transform="matrix(1.0,0.0,0.0,1.0,10.0,6.25)"><text id="ProcessOnText1084" fill="#000000" font-size="15" x="79.0" y="15.375" font-family="微软雅黑" font-weight="bold" font-style="normal" text-decoration="none" family="微软雅黑" text-anchor="middle" size="15">Select type of other </text><text id="ProcessOnText1085" fill="#000000" font-size="15" x="79.0" y="34.125" font-family="微软雅黑" font-weight="bold" font-style="normal" text-decoration="none" family="微软雅黑" text-anchor="middle" size="15">player</text></g></g><g id="ProcessOnG1086"><path id="ProcessOnPath1087" d="M991.0 310.5L1109.1021359505532 335.80760056083284" stroke="#323232" stroke-width="2.0" stroke-dasharray="10.0 4.0" fill="none" marker-end="url(#ProcessOnMarker1088)"/></g><g id="ProcessOnG1090" transform="matrix(1.0,0.0,0.0,1.0,817.0,459.0)" opacity="1.0"><path id="ProcessOnPath1091" d="M0.0 23.5C0.0 -7.833333333333333 170.0 -7.833333333333333 170.0 23.5C170.0 54.833333333333336 0.0 54.833333333333336 0.0 23.5Z" stroke="#323232" stroke-width="2.0" stroke-dasharray="none" opacity="1.0" fill="#ffffff"/><g id="ProcessOnG1092" transform="matrix(1.0,0.0,0.0,1.0,10.0,14.125)"><text id="ProcessOnText1093" fill="#000000" font-size="15" x="74.0" y="15.375" font-family="微软雅黑" font-weight="bold" font-style="normal" text-decoration="none" family="微软雅黑" text-anchor="middle" size="15">Deploy Armies</text></g></g><g id="ProcessOnG1094" transform="matrix(1.0,0.0,0.0,1.0,817.0,642.0)" opacity="1.0"><path id="ProcessOnPath1095" d="M0.0 23.5C0.0 -7.833333333333333 170.0 -7.833333333333333 170.0 23.5C170.0 54.833333333333336 0.0 54.833333333333336 0.0 23.5Z" stroke="#323232" stroke-width="2.0" stroke-dasharray="none" opacity="1.0" fill="#ffffff"/><g id="ProcessOnG1096" transform="matrix(1.0,0.0,0.0,1.0,10.0,14.125)"><text id="ProcessOnText1097" fill="#000000" font-size="15" x="74.0" y="15.375" font-family="微软雅黑" font-weight="bold" font-style="normal" text-decoration="none" family="微软雅黑" text-anchor="middle" size="15">Play one turn</text></g></g><g id="ProcessOnG1098"><path id="ProcessOnPath1099" d="M987.0 665.5L1115.8264826501993 494.6648817029966" stroke="#323232" stroke-width="2.0" stroke-dasharray="10.0 4.0" fill="none" marker-end="url(#ProcessOnMarker1100)"/></g><g id="ProcessOnG1102"><path id="ProcessOnPath1103" d="M987.0 482.5L1109.7639320225003 482.5" stroke="#323232" stroke-width="2.0" stroke-dasharray="10.0 4.0" fill="none" marker-end="url(#ProcessOnMarker1104)"/></g><g id="ProcessOnG1106"><path id="ProcessOnPath1107" d="M1125.0 606.5L1001.0094016991003 659.5104731866165" stroke="#323232" stroke-width="2.0" stroke-dasharray="10.0 4.0 2.0 4.0" fill="none" marker-end="url(#ProcessOnMarker1108)"/></g><g id="ProcessOnG1110"><path id="ProcessOnPath1111" d="M1125.0 725.0L1000.9910127293166 671.5323569376401" stroke="#323232" stroke-width="2.0" stroke-dasharray="10.0 4.0 2.0 4.0" fill="none" marker-end="url(#ProcessOnMarker1112)"/></g><g id="ProcessOnG1114"><path id="ProcessOnPath1115" d="M1125.0 665.5L1002.2360679774998 665.5" stroke="#323232" stroke-width="2.0" stroke-dasharray="10.0 4.0 2.0 4.0" fill="none" marker-end="url(#ProcessOnMarker1116)"/></g><g id="ProcessOnG1118"><path id="ProcessOnPath1119" d="M629.0 665.5L817.0 482.5" stroke="#323232" stroke-width="2.0" stroke-dasharray="none" fill="none"/></g><g id="ProcessOnG1120"><path id="ProcessOnPath1121" d="M629.0 665.5L817.0 665.5" stroke="#323232" stroke-width="2.0" stroke-dasharray="none" fill="none"/></g></g></g></svg>